{"title":"Just Henry 2011 DVDRip XviD-SPRiNTER","uid":6910565,"size":751571815,"categoryP":"video","categoryS":"movies","magnet":"?xt=urn:btih:e6c7e9d9f5e78c4229feeaf96bf25a9f947a63df&amp;dn=Just+Henry+2011+DVDRip+XviD-SPRiNTER&amp;tr=udp%3A%2F%2Ftracker.openbittorrent.com%3A80&amp;tr=udp%3A%2F%2Fopen.demonii.com%3A1337&amp;tr=udp%3A%2F%2Ftracker.coppersurfer.tk%3A6969&amp;tr=udp%3A%2F%2Fexodus.desync.com%3A6969","seeders":0,"leechers":1,"uploader":"rcbcsk","files":7,"time":1324788324,"description":"Format: AVI\nFormat/Info: Audio Video Interleave\nFile size: 701 MiB\nDuration: 1h 39mn\nOverall bit rate mode: Variable\nOverall bit rate: 986 Kbps\nWriting application: VirtualDubMod 1.5.10.2 (build 2540/release)\nWriting library: VirtualDubMod build 2540/release\n\nVideo\nID: 0\nFormat: MPEG-4 Visual\nFormat profile: Advanced Simple@L5\nFormat settings, BVOP: 2\nFormat settings, QPel: No\nFormat settings, GMC: No warppoints\nFormat settings, Matrix: Default (H.263)\nCodec ID: XVID\nCodec ID/Hint: XviD\nDuration: 1h 39mn\nBit rate: 840 Kbps\nWidth: 624 pixels\nHeight: 352 pixels\nDisplay aspect ratio: 16:9\nFrame rate: 25.000 fps\nColor space: YUV\nChroma subsampling: 4:2:0\nBit depth: 8 bits\nScan type: Progressive\nCompression mode: Lossy\nBits/(Pixel*Frame): 0.153\nStream size: 597 MiB (85%)\nWriting library: XviD 61\n\nAudio\nID: 1\nFormat: MPEG Audio\nFormat version: Version 1\nFormat profile: Layer 3\nMode: Joint stereo\nMode extension: MS Stereo\nCodec ID: 55\nCodec ID/Hint: MP3\nDuration: 1h 39mn\nBit rate mode: Variable\nBit rate: 133 Kbps\nMinimum bit rate: 128 Kbps\nChannel(s): 2 channels\nSampling rate: 48.0 KHz\nCompression mode: Lossy\nStream size: 94.6 MiB (13%)\nAlignment: Aligned on interleaves\nInterleave, duration: 24 ms (0.60 video frame)\nInterleave, preload duration: 277 ms\nWriting library: LAME3.95\nEncoding settings: -m j -V 4 -q 3 -lowpass 18 --vbr-old -b 128\n\nScreen Shots\n &lt;a href=&quot;\nhttp://imagestorage.org/images/60889636208862290277.jpg&quot; rel=&quot;nofollow&quot; target=&quot;_NEW&quot;&gt;\nhttp://imagestorage.org/images/60889636208862290277.jpg&lt;/a&gt; &lt;a href=&quot;\nhttp://imagestorage.org/images/08336664990349334945.jpg&quot; rel=&quot;nofollow&quot; target=&quot;_NEW&quot;&gt;\nhttp://imagestorage.org/images/08336664990349334945.jpg&lt;/a&gt; &lt;a href=&quot;\nhttp://imagestorage.org/images/78166619641294270857.jpg&quot; rel=&quot;nofollow&quot; target=&quot;_NEW&quot;&gt;\nhttp://imagestorage.org/images/78166619641294270857.jpg&lt;/a&gt;","torrent":{"xt":"urn:btih:e6c7e9d9f5e78c4229feeaf96bf25a9f947a63df","amp;dn":"Just+Henry+2011+DVDRip+XviD-SPRiNTER","amp;tr":["udp%3A%2F%2Ftracker.openbittorrent.com%3A80","udp%3A%2F%2Fopen.demonii.com%3A1337","udp%3A%2F%2Ftracker.coppersurfer.tk%3A6969","udp%3A%2F%2Fexodus.desync.com%3A6969"],"infoHash":"e6c7e9d9f5e78c4229feeaf96bf25a9f947a63df","infoHashBuffer":{"type":"Buffer","data":[230,199,233,217,245,231,140,66,41,254,234,249,107,242,90,159,148,122,99,223]},"announce":[],"urlList":[]}}